<?xml version="1.0" encoding="utf-8"?>
<!-- Generator: Adobe Illustrator 24.3.0, SVG Export Plug-In . SVG Version: 6.00 Build 0)  -->
<svg version="1.1" id="Layer_1" xmlns="http://www.w3.org/2000/svg" xmlns:xlink="http://www.w3.org/1999/xlink" x="0px" y="0px"
	 viewBox="0 0 458 522" style="enable-background:new 0 0 458 522;" xml:space="preserve">
<style type="text/css">
	.st0{fill:#5C5C5C;}
	.st1{fill:#007BFF;}
</style>
<path class="st0" d="M427.1,124.4L229,242.5L30.9,124.4c-5.3-3.2-5.4-11.2-0.1-14.5L196.8,9c19.9-12,44.5-12,64.4,0.1l166,100.9
	C432.5,113.2,432.5,121.2,427.1,124.4z"/>
<path class="st0" d="M208,281.5v223.8c0,12.9-13.4,20.9-24,14.4L31.8,427.2C12.1,415.3,0,393.3,0,369.5V171.8c0-6.4,6.6-10.4,12-7.3
	L208,281.5z"/>
<path class="st1" d="M458,171.8v197.7c0,23.8-12.1,45.7-31.8,57.7L274,519.7c-10.7,6.5-24-1.5-24-14.4V281.5l196-116.9
	C451.4,161.4,458,165.4,458,171.8z"/>
</svg>
