<?xml version="1.0" encoding="utf-8"?>
<!-- Generator: Adobe Illustrator 24.3.0, SVG Export Plug-In . SVG Version: 6.00 Build 0)  -->
<svg version="1.1" id="Layer_1" xmlns="http://www.w3.org/2000/svg" xmlns:xlink="http://www.w3.org/1999/xlink" x="0px" y="0px"
	 viewBox="0 0 458 522" style="enable-background:new 0 0 458 522;" xml:space="preserve">
<style type="text/css">
	.st0{fill:#8D8D8D;}
	.st1{fill:#FFA500;}
</style>
<path class="st0" d="M30.9,124.4L229,242.5l198.1-118.1c5.3-3.2,5.4-11.2,0.1-14.5L261.2,9c-19.9-12-44.5-12-64.4,0.1L30.8,110
	C25.5,113.2,25.5,121.2,30.9,124.4z"/>
<path class="st0" d="M250,281.5v223.8c0,12.9,13.4,20.9,24,14.4l152.2-92.5c19.7-11.9,31.8-33.9,31.8-57.7V171.8
	c0-6.4-6.6-10.4-12-7.3L250,281.5z"/>
<path class="st1" d="M0,171.8v197.7c0,23.8,12.1,45.7,31.8,57.7L184,519.7c10.7,6.5,24-1.5,24-14.4V281.5L12,164.6
	C6.6,161.4,0,165.4,0,171.8z"/>
</svg>
